<svg xmlns="http://www.w3.org/2000/svg" viewBox="0 0 96 96" role="img" aria-labelledby="title"><title id="title">TriVault owl and chevron</title><circle cx="48" cy="48" r="44" fill="#172330" stroke="#d8cfbf" stroke-width="3"/><path d="M24 22 35 29Q48 24 61 29L72 22 68 44Q68 63 48 72 28 63 28 44Z" fill="#eee8dd"/><path d="M29 35Q39 33 46 42 38 53 30 45ZM67 35Q57 33 50 42 58 53 66 45Z" fill="#172330"/><circle cx="38" cy="41" r="3" fill="#eee8dd"/><circle cx="58" cy="41" r="3" fill="#eee8dd"/><path d="m44 48 4-5 4 5-4 13Z" fill="#172330"/><path d="m23 73 25-26 25 26-9 9-16-17-16 17Z" fill="#a4483e"/></svg>
